<svg width="1024" height="1024" viewBox="0 0 1024 1024" fill="none" xmlns="http://www.w3.org/2000/svg">
  <defs>
    <linearGradient id="bg" x1="160" y1="112" x2="868" y2="912" gradientUnits="userSpaceOnUse">
      <stop stop-color="#131822"/>
      <stop offset="1" stop-color="#0E1119"/>
    </linearGradient>
    <linearGradient id="glow" x1="248" y1="224" x2="808" y2="800" gradientUnits="userSpaceOnUse">
      <stop stop-color="#C4B5FD"/>
      <stop offset="1" stop-color="#F783C0"/>
    </linearGradient>
    <linearGradient id="bars" x1="402" y1="350" x2="623" y2="640" gradientUnits="userSpaceOnUse">
      <stop stop-color="#D8CCFF"/>
      <stop offset="1" stop-color="#F9A8D4"/>
    </linearGradient>
    <radialGradient id="spot" cx="0" cy="0" r="1" gradientUnits="userSpaceOnUse" gradientTransform="translate(742 278) rotate(128.201) scale(549.935)">
      <stop stop-color="#F783C0" stop-opacity="0.34"/>
      <stop offset="1" stop-color="#F783C0" stop-opacity="0"/>
    </radialGradient>
    <filter id="shadow" x="214" y="188" width="596" height="648" filterUnits="userSpaceOnUse" color-interpolation-filters="sRGB">
      <feFlood flood-opacity="0" result="BackgroundImageFix"/>
      <feColorMatrix in="SourceAlpha" type="matrix" values="0 0 0 0 0 0 0 0 0 0 0 0 0 0 0 0 0 0 127 0" result="hardAlpha"/>
      <feOffset dy="20"/>
      <feGaussianBlur stdDeviation="28"/>
      <feComposite in2="hardAlpha" operator="out"/>
      <feColorMatrix type="matrix" values="0 0 0 0 0.131373 0 0 0 0 0.160784 0 0 0 0 0.25098 0 0 0 0.45 0"/>
      <feBlend mode="normal" in2="BackgroundImageFix" result="effect1_dropShadow_1_2"/>
      <feBlend mode="normal" in="SourceGraphic" in2="effect1_dropShadow_1_2" result="shape"/>
    </filter>
  </defs>

  <rect width="1024" height="1024" rx="232" fill="url(#bg)"/>
  <rect width="1024" height="1024" rx="232" fill="url(#spot)"/>

  <g opacity="0.17">
    <path d="M140 274H884" stroke="#B197FC" stroke-width="2"/>
    <path d="M140 512H884" stroke="#B197FC" stroke-width="2"/>
    <path d="M140 750H884" stroke="#B197FC" stroke-width="2"/>
    <path d="M274 140V884" stroke="#B197FC" stroke-width="2"/>
    <path d="M512 140V884" stroke="#B197FC" stroke-width="2"/>
    <path d="M750 140V884" stroke="#B197FC" stroke-width="2"/>
  </g>

  <circle cx="512" cy="512" r="312" stroke="#B197FC" stroke-opacity="0.16" stroke-width="2"/>
  <circle cx="512" cy="512" r="228" stroke="#F783C0" stroke-opacity="0.12" stroke-width="2"/>

  <g filter="url(#shadow)">
    <rect x="270" y="244" width="484" height="484" rx="132" fill="#151B28"/>
    <rect x="270" y="244" width="484" height="484" rx="132" stroke="url(#glow)" stroke-width="24"/>

    <rect x="382" y="476" width="52" height="118" rx="24" fill="url(#bars)"/>
    <rect x="458" y="394" width="52" height="200" rx="24" fill="url(#bars)"/>
    <rect x="534" y="318" width="52" height="276" rx="24" fill="url(#bars)"/>
    <rect x="610" y="394" width="52" height="200" rx="24" fill="url(#bars)"/>

    <circle cx="408" cy="456" r="10" fill="#F783C0"/>
    <circle cx="484" cy="374" r="10" fill="#C4B5FD"/>
    <circle cx="560" cy="298" r="10" fill="#F783C0"/>
    <circle cx="636" cy="374" r="10" fill="#C4B5FD"/>
  </g>
</svg>
